<svg width="240" height="49" viewBox="0 0 240 49" fill="none" xmlns="http://www.w3.org/2000/svg">
<path d="M31.465 46.366C29.6157 46.369 27.7958 45.9035 26.1751 45.0128C24.5545 44.1221 23.1859 42.8353 22.1972 41.2725C21.8837 40.7766 21.78 40.1764 21.909 39.604C22.038 39.0317 22.3891 38.534 22.885 38.2205C23.381 37.907 23.9811 37.8033 24.5535 37.9323C25.1259 38.0613 25.6235 38.4124 25.937 38.9083C26.3949 39.6318 26.9907 40.258 27.6906 40.7512C28.3904 41.2443 29.1806 41.5949 30.0159 41.7827C30.8512 41.9705 31.7153 41.9919 32.5589 41.8458C33.4025 41.6997 34.2091 41.3888 34.9325 40.9309C35.656 40.4731 36.2822 39.8772 36.7753 39.1774C37.2685 38.4775 37.619 37.6874 37.8068 36.8521C37.9947 36.0168 38.0161 35.1527 37.87 34.3091C37.7238 33.4655 37.413 32.6589 36.9551 31.9355L22.9118 9.71359C21.9614 8.31019 20.5021 7.33181 18.8429 6.98569C17.1838 6.63956 15.455 6.95287 14.0228 7.85925C12.5906 8.76563 11.5674 10.1939 11.17 11.8415C10.7726 13.4892 11.0322 15.2269 11.8937 16.6865L17.1415 24.9846C17.455 25.4806 17.5586 26.0807 17.4296 26.6531C17.3006 27.2255 16.9496 27.7231 16.4536 28.0367C15.9577 28.3502 15.3575 28.4538 14.7852 28.3248C14.2128 28.1958 13.7151 27.8447 13.4016 27.3488L8.15386 19.0506C6.62893 16.5977 6.13532 13.6415 6.78062 10.8262C7.42591 8.01089 9.1578 5.56478 11.5988 4.02091C14.0399 2.47703 16.9922 1.96055 19.8124 2.58403C22.6326 3.20751 25.0921 4.92041 26.6548 7.34943L40.7107 29.5713C41.7576 31.2253 42.3416 33.1299 42.4019 35.0864C42.4622 37.0429 41.9966 38.9798 41.0535 40.6952C40.1105 42.4105 38.7246 43.8415 37.0403 44.8389C35.356 45.8363 33.435 46.3637 31.4776 46.366H31.465Z" fill="white"/>
<path d="M31.4648 46.4379C29.4107 46.4332 27.4005 45.8436 25.6693 44.738C23.2166 43.1824 21.482 40.7165 20.8468 37.8824C20.2116 35.0483 20.7278 32.0779 22.282 29.6243L25.1153 25.1227C25.4288 24.6267 25.9265 24.2757 26.4988 24.1467C27.0712 24.0177 27.6713 24.1213 28.1673 24.4348C28.6632 24.7483 29.0143 25.246 29.1433 25.8184C29.2723 26.3907 29.1686 26.9909 28.8551 27.4868L25.9999 32.0011C25.0772 33.4637 24.7722 35.2324 25.1516 36.9196C25.5311 38.6067 26.564 40.0746 28.024 41.0013C28.7344 41.4582 29.5288 41.7688 30.3607 41.9147C31.1927 42.0607 32.0454 42.0391 32.8688 41.8513C33.6955 41.6604 34.4763 41.3079 35.1662 40.8141C35.8561 40.3203 36.4416 39.6949 36.8889 38.974C37.0441 38.7284 37.2462 38.5158 37.4836 38.3484C37.721 38.1809 37.989 38.0618 38.2724 37.998C38.5558 37.9341 38.849 37.9267 39.1353 37.9761C39.4216 38.0255 39.6953 38.1309 39.9409 38.2861C40.1864 38.4414 40.399 38.6434 40.5665 38.8808C40.7339 39.1182 40.853 39.3863 40.9169 39.6697C40.9808 39.9531 40.9882 40.2463 40.9387 40.5326C40.8893 40.8188 40.7839 41.0926 40.6287 41.3381C39.8732 42.5492 38.8857 43.599 37.7231 44.4272C36.5605 45.2554 35.2457 45.8457 33.8542 46.164C33.0705 46.3446 32.269 46.4365 31.4648 46.4379Z" fill="white"/>
<path d="M47.6611 28.5165C47.2645 28.5187 46.8747 28.4138 46.5327 28.2129C46.1908 28.012 45.9094 27.7225 45.7183 27.375C45.5271 27.0275 45.4333 26.6349 45.4467 26.2385C45.4601 25.8421 45.5802 25.4567 45.7943 25.1229L51.0862 16.7523C52.0108 15.2912 52.3172 13.5227 51.9379 11.8357C51.5586 10.1487 50.5246 8.68151 49.0636 7.75685C47.6025 6.83219 45.8339 6.52582 44.1469 6.90513C42.4599 7.28444 40.9927 8.31838 40.0681 9.77947L33.3785 20.3568C33.065 20.8527 32.5674 21.2038 31.995 21.3328C31.4226 21.4618 30.8225 21.3582 30.3265 21.0447C29.8306 20.7311 29.4795 20.2335 29.3505 19.6611C29.2215 19.0888 29.3252 18.4886 29.6387 17.9926L36.3282 7.4153C37.0968 6.20052 38.097 5.14899 39.2719 4.32077C40.4468 3.49255 41.7733 2.90386 43.1757 2.5883C44.5782 2.27274 46.029 2.23649 47.4454 2.48163C48.8618 2.72677 50.2161 3.2485 51.4309 4.01702C52.6457 4.78554 53.6972 5.78578 54.5254 6.96068C55.3536 8.13558 55.9423 9.46211 56.2579 10.8645C56.5734 12.2669 56.6097 13.7178 56.3645 15.1342C56.1194 16.5506 55.5977 17.9049 54.8292 19.1196L49.5342 27.4871C49.335 27.8035 49.0585 28.064 48.7308 28.2441C48.4031 28.4241 48.035 28.5179 47.6611 28.5165Z" fill="white"/>
<path d="M57.6692 40.6552C59.9572 40.6552 61.812 38.8004 61.812 36.5124C61.812 34.2244 59.9572 32.3696 57.6692 32.3696C55.3812 32.3696 53.5264 34.2244 53.5264 36.5124C53.5264 38.8004 55.3812 40.6552 57.6692 40.6552Z" fill="white"/>
<path d="M5.29856 40.6552C7.58656 40.6552 9.44135 38.8004 9.44135 36.5124C9.44135 34.2244 7.58656 32.3696 5.29856 32.3696C3.01056 32.3696 1.15576 34.2244 1.15576 36.5124C1.15576 38.8004 3.01056 40.6552 5.29856 40.6552Z" fill="white"/>
<path d="M97.1226 33.4377L95.6777 30.0756H86.1643L84.754 33.3559C84.5987 33.7288 84.3364 34.0474 84.0003 34.2714C83.6641 34.4955 83.2692 34.6151 82.8652 34.6151C82.5213 34.6148 82.1829 34.5281 81.8813 34.3629C81.5796 34.1978 81.3243 33.9594 81.1387 33.6698C80.9532 33.3803 80.8434 33.0487 80.8194 32.7056C80.7955 32.3625 80.8581 32.0189 81.0016 31.7063L88.5128 15.3649C88.6762 15.008 88.9387 14.7055 89.2691 14.4934C89.5995 14.2813 89.9838 14.1686 90.3764 14.1687H91.3712C91.7642 14.1684 92.1491 14.281 92.48 14.4931C92.8109 14.7051 93.074 15.0077 93.2379 15.3649L100.743 31.6906C100.886 32.0031 100.949 32.3468 100.925 32.6899C100.901 33.033 100.791 33.3645 100.606 33.6541C100.42 33.9437 100.165 34.182 99.8631 34.3472C99.5615 34.5123 99.2231 34.5991 98.8792 34.5994C98.505 34.5983 98.1393 34.4878 97.8271 34.2813C97.515 34.0749 97.2701 33.7817 97.1226 33.4377ZM87.6439 26.6537H94.1981L90.921 18.9883L87.6439 26.6537Z" fill="white"/>
<path d="M108.614 32.8395V15.9063C108.615 15.4415 108.8 14.996 109.128 14.6673C109.457 14.3387 109.902 14.1537 110.367 14.1528H120.954C121.419 14.1528 121.866 14.3375 122.195 14.6662C122.524 14.995 122.71 15.4409 122.711 15.9063C122.711 16.3722 122.526 16.8189 122.196 17.1484C121.867 17.4778 121.42 17.6629 120.954 17.6629H113.037V22.451H120.387C120.852 22.451 121.298 22.6357 121.627 22.9646C121.956 23.2934 122.141 23.7394 122.141 24.2045C122.141 24.6695 121.956 25.1155 121.627 25.4443C121.298 25.7732 120.852 25.9579 120.387 25.9579H113.037V31.0923H120.967C121.432 31.0923 121.879 31.2774 122.209 31.6068C122.538 31.9363 122.723 32.3831 122.723 32.8489C122.722 33.3143 122.537 33.7602 122.208 34.089C121.878 34.4177 121.432 34.6024 120.967 34.6024H110.38C110.148 34.6036 109.918 34.5589 109.703 34.4708C109.489 34.3827 109.294 34.2529 109.129 34.089C108.965 33.9251 108.835 33.7303 108.747 33.5158C108.658 33.3014 108.613 33.0715 108.614 32.8395Z" fill="white"/>
<path d="M133.061 34.2374C132.331 34.0287 131.622 33.7548 130.942 33.4189C130.535 33.2164 130.223 32.8646 130.069 32.4371C129.915 32.0095 129.933 31.5391 130.117 31.124L130.149 31.0547C130.249 30.8403 130.391 30.6482 130.566 30.4899C130.742 30.3316 130.948 30.2103 131.171 30.1333C131.395 30.0563 131.632 30.0252 131.868 30.0418C132.104 30.0584 132.334 30.1224 132.544 30.23C134.116 30.9817 135.839 31.365 137.581 31.3506C138.859 31.3506 139.838 31.1429 140.525 30.721C140.839 30.5562 141.101 30.3079 141.283 30.0036C141.465 29.6992 141.56 29.3506 141.557 28.9959C141.56 28.677 141.472 28.3639 141.305 28.0923C141.138 27.8206 140.898 27.6014 140.613 27.4597C139.983 27.0924 138.867 26.7346 137.263 26.3862C135.779 26.1178 134.333 25.6696 132.957 25.0515C132.011 24.6369 131.198 23.969 130.608 23.1217C130.09 22.2701 129.833 21.285 129.869 20.2885C129.852 19.1053 130.212 17.9475 130.898 16.9831C131.635 15.9762 132.632 15.1884 133.782 14.7039C135.139 14.1301 136.602 13.8491 138.075 13.8791C139.496 13.8724 140.909 14.0847 142.265 14.5087C142.905 14.7073 143.525 14.9655 144.117 15.28C144.505 15.4912 144.799 15.8416 144.94 16.261C145.081 16.6803 145.058 17.1374 144.875 17.5403L144.837 17.6284C144.735 17.847 144.589 18.0424 144.408 18.2025C144.227 18.3626 144.016 18.4841 143.787 18.5596C143.557 18.6351 143.315 18.6629 143.075 18.6413C142.834 18.6198 142.601 18.5493 142.388 18.4343C141.063 17.7578 139.595 17.4081 138.107 17.4144C136.927 17.4144 135.999 17.641 135.321 18.0943C135.004 18.2906 134.743 18.5665 134.565 18.8945C134.388 19.2225 134.299 19.5912 134.307 19.9642C134.29 20.3821 134.43 20.7913 134.701 21.1101C135.065 21.4775 135.512 21.7518 136.004 21.9097C136.853 22.2081 137.72 22.4499 138.601 22.6338C141.231 23.2172 143.12 23.9622 144.268 24.8689C145.416 25.7755 145.991 27.0347 145.993 28.6465C146.025 29.5327 145.839 30.4133 145.449 31.2101C145.06 32.0069 144.48 32.6953 143.761 33.2143C142.269 34.3245 140.19 34.8806 137.525 34.8827C136.014 34.8803 134.511 34.663 133.061 34.2374Z" fill="white"/>
<path d="M158.352 32.7579V17.8363H153.797C153.555 17.8363 153.315 17.7886 153.092 17.6961C152.868 17.6035 152.665 17.4679 152.494 17.2969C152.323 17.1259 152.188 16.9228 152.095 16.6994C152.003 16.476 151.955 16.2365 151.955 15.9947C151.955 15.7528 152.003 15.5133 152.095 15.2899C152.188 15.0665 152.323 14.8635 152.494 14.6925C152.665 14.5215 152.868 14.3858 153.092 14.2933C153.315 14.2007 153.555 14.1531 153.797 14.1531H167.456C167.944 14.1531 168.413 14.3471 168.758 14.6925C169.104 15.0378 169.298 15.5062 169.298 15.9947C169.298 16.4831 169.104 16.9515 168.758 17.2969C168.413 17.6422 167.944 17.8363 167.456 17.8363H162.888V32.7579C162.888 33.2463 162.694 33.7147 162.349 34.0601C162.003 34.4055 161.535 34.5995 161.047 34.5995H160.206C159.963 34.6011 159.722 34.5547 159.497 34.4629C159.273 34.3711 159.068 34.2357 158.896 34.0646C158.723 33.8934 158.587 33.6898 158.493 33.4655C158.4 33.2413 158.352 33.0008 158.352 32.7579Z" fill="white"/>
<path d="M176.503 32.8397V15.9065C176.504 15.4417 176.689 14.9962 177.018 14.6676C177.347 14.3389 177.792 14.1539 178.257 14.1531H188.844C189.309 14.1531 189.755 14.3377 190.085 14.6665C190.414 14.9952 190.599 15.4412 190.6 15.9065C190.6 16.3724 190.415 16.8192 190.086 17.1486C189.756 17.478 189.31 17.6631 188.844 17.6631H180.914V22.4513H188.258C188.723 22.4513 189.169 22.636 189.498 22.9648C189.827 23.2937 190.012 23.7397 190.012 24.2047C190.012 24.6697 189.827 25.1158 189.498 25.4446C189.169 25.7734 188.723 25.9582 188.258 25.9582H180.914V31.0926H188.844C189.31 31.0926 189.756 31.2776 190.086 31.6071C190.415 31.9365 190.6 32.3833 190.6 32.8492C190.599 33.3145 190.414 33.7605 190.085 34.0892C189.755 34.418 189.309 34.6026 188.844 34.6026H178.257C178.026 34.6022 177.797 34.5563 177.584 34.4674C177.371 34.3785 177.177 34.2485 177.015 34.0848C176.852 33.9211 176.723 33.7268 176.635 33.5132C176.547 33.2995 176.503 33.0707 176.503 32.8397Z" fill="white"/>
<path d="M202.72 33.5545C201.201 32.7047 199.97 31.4227 199.181 29.8713C198.371 28.1478 197.951 26.2667 197.951 24.3623C197.951 22.4578 198.371 20.5768 199.181 18.8533C199.968 17.305 201.201 16.0278 202.72 15.1858C204.382 14.2954 206.246 13.8507 208.131 13.8951C209.452 13.8918 210.764 14.1045 212.016 14.5247C212.634 14.7282 213.23 14.994 213.794 15.318C214.164 15.5476 214.436 15.9051 214.56 16.3225C214.683 16.7399 214.648 17.1881 214.462 17.5815C214.362 17.8037 214.218 18.0033 214.038 18.1681C213.859 18.3329 213.648 18.4595 213.418 18.5402C213.188 18.6209 212.944 18.654 212.7 18.6374C212.457 18.6209 212.22 18.5551 212.003 18.444C211.665 18.2698 211.316 18.1184 210.958 17.9907C210.077 17.6821 209.15 17.5256 208.216 17.5279C206.401 17.5279 205.004 18.1072 204.026 19.2656C203.048 20.4241 202.56 22.1261 202.562 24.3717C202.562 26.6173 203.05 28.3235 204.026 29.4904C205.002 30.6573 206.399 31.2418 208.216 31.2439C209.15 31.2461 210.077 31.0897 210.958 30.7811C211.316 30.6535 211.665 30.502 212.003 30.3278C212.22 30.2166 212.457 30.1506 212.7 30.1339C212.943 30.1171 213.187 30.1499 213.417 30.2303C213.647 30.3107 213.858 30.437 214.038 30.6014C214.217 30.7659 214.362 30.9652 214.462 31.1872C214.648 31.5806 214.683 32.0287 214.56 32.4461C214.436 32.8636 214.164 33.2211 213.794 33.4506C213.231 33.777 212.635 34.0439 212.016 34.2471C210.764 34.6673 209.452 34.8799 208.131 34.8767C206.243 34.9158 204.377 34.46 202.72 33.5545Z" fill="white"/>
<path d="M236.625 14.1531C236.917 14.151 237.207 14.207 237.477 14.3178C237.747 14.4286 237.992 14.592 238.199 14.7985C238.405 15.005 238.569 15.2505 238.68 15.5207C238.79 15.7909 238.846 16.0805 238.844 16.3725V32.3802C238.846 32.6722 238.79 32.9618 238.68 33.232C238.569 33.5022 238.405 33.7477 238.199 33.9542C237.992 34.1607 237.747 34.3241 237.477 34.4349C237.207 34.5456 236.917 34.6016 236.625 34.5995C236.334 34.5995 236.046 34.542 235.778 34.4303C235.51 34.3186 235.266 34.1548 235.061 33.9485C234.856 33.7423 234.694 33.4975 234.585 33.2283C234.475 32.9591 234.419 32.6709 234.421 32.3802V26.0149H227.461V32.3802C227.463 32.6709 227.408 32.9591 227.298 33.2283C227.188 33.4975 227.026 33.7423 226.821 33.9485C226.616 34.1548 226.373 34.3186 226.104 34.4303C225.836 34.542 225.548 34.5995 225.257 34.5995C224.669 34.5995 224.104 34.3657 223.688 33.9495C223.272 33.5333 223.038 32.9688 223.038 32.3802V16.3725C223.038 15.7839 223.272 15.2194 223.688 14.8032C224.104 14.387 224.669 14.1531 225.257 14.1531C225.548 14.1531 225.836 14.2106 226.104 14.3224C226.373 14.4341 226.616 14.5978 226.821 14.8041C227.026 15.0104 227.188 15.2552 227.298 15.5244C227.408 15.7935 227.463 16.0818 227.461 16.3725V22.4167H234.409V16.3725C234.407 16.0807 234.463 15.7914 234.573 15.5214C234.684 15.2514 234.847 15.0061 235.053 14.7996C235.259 14.5932 235.504 14.4297 235.774 14.3187C236.044 14.2077 236.333 14.1515 236.625 14.1531Z" fill="white"/>
</svg>
