<svg width="42" height="42" viewBox="0 0 42 42" fill="none" xmlns="http://www.w3.org/2000/svg">
<path d="M20.5717 10.2863V15.4291L27.4289 8.57199L20.5717 1.71484V6.8577C16.9345 6.8577 13.4462 8.3026 10.8742 10.8745C8.30232 13.4465 6.85742 16.9347 6.85742 20.572C6.85742 23.2634 7.64599 25.7663 8.98314 27.8748L11.486 25.372C10.6948 23.896 10.2824 22.2467 10.286 20.572C10.286 17.844 11.3697 15.2278 13.2986 13.2989C15.2276 11.3699 17.8438 10.2863 20.5717 10.2863ZM32.1603 13.2691L29.6574 15.772C30.4117 17.212 30.8574 18.8577 30.8574 20.572C30.8574 23.2999 29.7738 25.9161 27.8448 27.8451C25.9159 29.774 23.2996 30.8577 20.5717 30.8577V25.7148L13.7146 32.572L20.5717 39.4291V34.2863C24.209 34.2863 27.6972 32.8414 30.2692 30.2695C32.8411 27.6975 34.286 24.2092 34.286 20.572C34.286 17.8806 33.4974 15.3777 32.1603 13.2691Z" fill="#F58342"/>
</svg>
