<svg width="36" height="36" viewBox="0 0 36 36" fill="none" xmlns="http://www.w3.org/2000/svg">
<path d="M30.06 13.065V5.99997H23.01L18 1.03497L13.065 5.99997H6.00003V13.065L1.03503 18L6.00003 23.01V30.06H13.065L18 35.025L23.01 30.06H30.06V23.01L35.025 18L30.06 13.065ZM13.245 10.575C14.715 10.575 15.9 11.76 15.9 13.245C15.9 13.9491 15.6203 14.6244 15.1224 15.1223C14.6245 15.6203 13.9492 15.9 13.245 15.9C11.76 15.9 10.575 14.715 10.575 13.245C10.575 11.76 11.76 10.575 13.245 10.575ZM22.83 25.5C21.36 25.5 20.175 24.3 20.175 22.83C20.175 22.1258 20.4548 21.4505 20.9527 20.9526C21.4506 20.4547 22.1259 20.175 22.83 20.175C24.3 20.175 25.5 21.36 25.5 22.83C25.5 23.5381 25.2187 24.2172 24.718 24.7179C24.2173 25.2187 23.5382 25.5 22.83 25.5ZM12.75 25.545L10.5 23.295L23.295 10.5L25.545 12.75L12.75 25.545Z" fill="#F58342"/>
</svg>
