<svg width="44" height="44" viewBox="0 0 44 44" fill="none" xmlns="http://www.w3.org/2000/svg">
<path d="M3.66663 40.3334V12.8334C3.66663 12.3472 3.85978 11.8809 4.2036 11.5371C4.54741 11.1932 5.01373 11.0001 5.49996 11.0001H12.8333V3.66675H31.1666V11.0001H38.5C38.9862 11.0001 39.4525 11.1932 39.7963 11.5371C40.1401 11.8809 40.3333 12.3472 40.3333 12.8334V40.3334H25.6666V31.1667H18.3333V40.3334H3.66663ZM16.5 7.33341V18.3334H20.1666V14.6667H23.8333V18.3334H27.5V7.33341H23.8333V11.0001H20.1666V7.33341H16.5ZM7.33329 36.6667H14.6666V31.1667H7.33329V36.6667ZM7.33329 27.5001H14.6666V22.0001H7.33329V27.5001ZM29.3333 36.6667H36.6666V31.1667H29.3333V36.6667ZM29.3333 27.5001H36.6666V22.0001H29.3333V27.5001ZM18.3333 27.5001H25.6666V22.0001H18.3333V27.5001Z" fill="#F58342"/>
</svg>
