<svg width="30" height="30" viewBox="0 0 30 30" fill="none" xmlns="http://www.w3.org/2000/svg">
<path d="M25.5 9C26.34 9 27 9.645 27 10.5C27 10.8978 26.842 11.2794 26.5607 11.5607C26.2794 11.842 25.8978 12 25.5 12C24.645 12 24 11.325 24 10.5C24 9.645 24.645 9 25.5 9ZM0 0V13.5C0 17.94 3.285 21.75 7.71 22.365C8.64 26.88 12.63 30 17.25 30C18.5304 30 19.7982 29.7478 20.9812 29.2578C22.1641 28.7678 23.2389 28.0497 24.1443 27.1443C25.0497 26.2389 25.7678 25.1641 26.2578 23.9812C26.7478 22.7982 27 21.5304 27 20.25V14.715C28.74 14.085 30 12.435 30 10.5C30 9.30653 29.5259 8.16193 28.682 7.31802C27.8381 6.47411 26.6935 6 25.5 6C24.3065 6 23.1619 6.47411 22.318 7.31802C21.4741 8.16193 21 9.30653 21 10.5C21 12.435 22.26 14.1 24 14.715V20.115C24 23.865 21 26.865 17.25 26.865C14.25 26.865 11.73 25.05 10.83 22.35C15 21.45 18 17.7 18 13.5V0H12V4.5H15V13.5C15 15.0913 14.3679 16.6174 13.2426 17.7426C12.1174 18.8679 10.5913 19.5 9 19.5C7.4087 19.5 5.88258 18.8679 4.75736 17.7426C3.63214 16.6174 3 15.0913 3 13.5V4.5H6V0H0Z" fill="white"/>
</svg>
